<svg width="24" height="24" viewBox="0 0 24 24" fill="none" xmlns="http://www.w3.org/2000/svg">
<path fill-rule="evenodd" clip-rule="evenodd" d="M9.83997 2.64592C11.1746 1.96337 12.7532 1.95295 14.0962 2.61394L14.16 2.64592L14.1603 2.64616C16.1512 3.66456 18.1288 4.29041 20.093 4.53594C20.4683 4.58285 20.75 4.90184 20.75 5.28008V14.495C20.75 16.1322 19.9069 17.6552 18.5175 18.5236L13.4575 21.6861L13.4572 21.6863C12.5654 22.243 11.4346 22.243 10.5428 21.6863L10.5425 21.6861L5.48254 18.5236C4.09319 17.6553 3.25 16.1336 3.25 14.495V5.28008C3.25001 4.90184 3.53167 4.58285 3.90698 4.53594C5.87094 4.29044 7.84864 3.66333 9.83997 2.64592ZM12 7.24504C9.92955 7.24504 8.25003 8.9246 8.25 10.995V13.995C8.25 14.4093 8.58579 14.745 9 14.745C9.41421 14.745 9.75 14.4093 9.75 13.995V10.995C9.75003 9.75303 10.758 8.74504 12 8.74504C13.242 8.74504 14.25 9.75303 14.25 10.995V13.995C14.25 14.4093 14.5858 14.745 15 14.745C15.4142 14.745 15.75 14.4093 15.75 13.995V10.995C15.75 8.9246 14.0704 7.24504 12 7.24504Z" fill="#1D2539"/>
</svg>
