<svg width="24" height="24" viewBox="0 0 24 24" fill="none" xmlns="http://www.w3.org/2000/svg">
<path d="M9.49375 9.06129C10.5737 9.00629 11.6538 8.98877 12.7337 9.00502V10.2713C12.035 10.2663 11.3362 10.2687 10.6374 10.2787V11.37L12.3924 11.3662V12.5912L10.6374 12.5875V13.7212C11.3487 13.7312 12.0587 13.7337 12.77 13.7274V14.9938C11.6775 15.0113 10.5862 14.9937 9.49375 14.9387V9.06129Z" fill="#1D2539"/>
<path d="M13.0274 9.01002C13.4149 9.01877 13.8037 9.03125 14.1925 9.0475C14.4912 10.345 14.7887 11.6288 15.0875 12.8862C15.3725 11.6175 15.6574 10.3712 15.9411 9.1587C16.3211 9.18995 16.7 9.225 17.0787 9.27125C17.37 10.47 17.6599 11.6325 17.9499 12.7412C18.2449 11.6087 18.5399 10.5299 18.8349 9.51869C19.2224 9.58869 19.6112 9.66127 20 9.76002C19.5137 11.135 19.0287 12.7675 18.5425 14.5287C18.145 14.5937 17.7462 14.6488 17.3487 14.6975C17.0687 13.5625 16.7886 12.3825 16.5086 11.1663C16.2261 12.3663 15.9449 13.6026 15.6637 14.8638C15.2687 14.895 14.8724 14.9187 14.4774 14.9387C13.9936 13.0037 13.5112 11.0125 13.0274 9.01002Z" fill="#1D2539"/>
<path d="M8.52622 14.8788C8.14497 14.8513 7.76367 14.8188 7.38242 14.78C6.63617 13.5425 5.8899 12.375 5.14365 11.37V14.4776C4.76242 14.4101 4.3812 14.3375 3.99997 14.24V9.76002C4.39995 9.65878 4.80116 9.58371 5.20114 9.51246C5.92739 10.4 6.65492 11.465 7.38242 12.6112V9.21754C7.76367 9.18004 8.14497 9.14629 8.52622 9.11879V14.8788Z" fill="#1D2539"/>
<path fill-rule="evenodd" clip-rule="evenodd" d="M5.17221 5.00331C9.70967 4.49971 14.2903 4.49971 18.8277 5.00331H18.8281C20.4948 5.18921 21.8373 6.45926 22.1124 8.11451C22.5409 10.6872 22.5409 13.313 22.1123 15.8845V15.8849C21.8358 17.5391 20.4953 18.8094 18.8281 18.9954H18.8277C14.2903 19.499 9.70968 19.499 5.17221 18.9954H5.17185C3.5052 18.8095 2.16297 17.5396 1.88779 15.8844C1.45921 13.3116 1.45906 10.6858 1.88767 8.11415L1.88779 8.1139C2.16428 6.45972 3.50461 5.18926 5.17185 5.00331H5.17221ZM18.6618 6.49403C14.2346 6.0027 9.76525 6.00269 5.33798 6.49403L5.33811 6.49415C4.33791 6.60572 3.53333 7.36786 3.36728 8.3611C2.96594 10.7693 2.9659 13.2284 3.36728 15.638L3.3674 15.6383C3.53229 16.6303 4.3371 17.3927 5.33762 17.5045C9.62674 17.9806 13.9555 17.9955 18.247 17.5492L18.6623 17.5045C19.6622 17.3928 20.4665 16.6309 20.6327 15.638C21.034 13.2296 21.0341 10.7704 20.6327 8.36073V8.36049C20.4678 7.3683 19.6626 6.60566 18.6618 6.49403Z" fill="#1D2539"/>
</svg>
