<svg width="24" height="24" viewBox="0 0 24 24" fill="none" xmlns="http://www.w3.org/2000/svg">
<path d="M12.0112 20.22C11.95 20.22 11.8875 20.2125 11.8275 20.1975C11.6537 20.1538 7.52247 19.0613 4.42247 13.855C2.62747 10.84 2.92247 7.08001 5.10872 5.11001C6.42622 3.92126 7.97247 3.47251 9.46372 3.84626C10.4887 4.10376 11.3712 4.72626 12.0112 5.61876C12.6512 4.72626 13.5337 4.10376 14.5587 3.84626C16.0487 3.47251 17.595 3.92126 18.9137 5.11001C21.1 7.08126 21.3937 10.8413 19.6 13.855C16.5012 19.0613 12.37 20.1538 12.195 20.1975C12.135 20.2125 12.0737 20.22 12.0112 20.22Z" fill="#1D2539"/>
</svg>
