<svg width="24" height="24" viewBox="0 0 24 24" fill="none" xmlns="http://www.w3.org/2000/svg">
<path fill-rule="evenodd" clip-rule="evenodd" d="M12 2.25C17.3848 2.25 21.75 6.61522 21.75 12C21.75 17.3848 17.3848 21.75 12 21.75C6.61522 21.75 2.25 17.3848 2.25 12C2.25 6.61522 6.61522 2.25 12 2.25ZM10.0001 7.25C9.58591 7.25 9.25012 7.58579 9.25012 8C9.25012 8.41421 9.58591 8.75 10.0001 8.75H14.0001C14.0601 8.75001 14.1192 8.75441 14.1769 8.76257L7.96985 14.9697C7.67696 15.2626 7.67696 15.7374 7.96985 16.0303C8.26275 16.3231 8.73752 16.3231 9.0304 16.0303L15.2374 9.82312C15.2456 9.88091 15.2501 9.93994 15.2501 10V14C15.2501 14.4142 15.5859 14.75 16.0001 14.75C16.4143 14.7499 16.7501 14.4142 16.7501 14V10C16.7501 8.48082 15.5193 7.25006 14.0001 7.25H10.0001Z" fill="#1D2539"/>
</svg>
