<svg width="24" height="24" viewBox="0 0 24 24" fill="none" xmlns="http://www.w3.org/2000/svg">
<path d="M21.3512 13.9375C21.4587 11.3637 21.3525 8.78124 21.0337 6.22249C20.8212 4.51874 19.4812 3.17999 17.7775 2.96624C13.9437 2.48749 10.0562 2.48749 6.2225 2.96624C4.51875 3.17874 3.17999 4.51874 2.96624 6.22249C2.48749 10.0562 2.48749 13.9437 2.96624 17.7775C3.17874 19.4812 4.51875 20.82 6.2225 21.0337C8.13875 21.2737 10.07 21.3937 12 21.3937C12.6462 21.3937 13.2912 21.3787 13.9375 21.3525C14.8737 22.22 16.1262 22.7512 17.5 22.7512C20.395 22.7512 22.75 20.3962 22.75 17.5012C22.75 16.1275 22.2187 14.875 21.3512 13.9387V13.9375ZM12.25 17.5C12.25 18.3587 12.4587 19.1687 12.825 19.885C10.6825 19.9237 8.53624 19.8112 6.40749 19.545C5.38499 19.4175 4.58124 18.6137 4.45374 17.5912C3.98999 13.8812 3.98999 10.1175 4.45374 6.40749C4.58124 5.38499 5.38499 4.58124 6.40749 4.45374C7.35249 4.33624 8.29999 4.24749 9.24999 4.18999V9.99874C9.24999 10.1975 9.32874 10.3887 9.46874 10.5287C9.60874 10.6687 9.79999 10.7487 9.99874 10.7487H13.9987C14.1975 10.7487 14.3887 10.67 14.5287 10.5287C14.6687 10.3875 14.7487 10.1975 14.7487 9.99874V4.18999C15.6975 4.24749 16.6462 4.33624 17.59 4.45374C18.6125 4.58124 19.4162 5.38499 19.5437 6.40749C19.81 8.53624 19.9225 10.6812 19.8837 12.825C19.1675 12.4587 18.3575 12.25 17.4987 12.25C14.6037 12.25 12.2487 14.605 12.2487 17.5H12.25ZM20.28 16.78L17.28 19.78C17.1337 19.9262 16.9412 20 16.75 20C16.5587 20 16.3662 19.9262 16.22 19.78L15.22 18.78C14.9275 18.4875 14.9275 18.0125 15.22 17.7187C15.5125 17.4262 15.9875 17.4262 16.2812 17.7187L16.7512 18.1887L19.2212 15.7187C19.5137 15.4262 19.9887 15.4262 20.2825 15.7187C20.575 16.0112 20.575 16.4862 20.2825 16.78H20.28Z" fill="#1D2539"/>
</svg>
