<svg width="24" height="24" viewBox="0 0 24 24" fill="none" xmlns="http://www.w3.org/2000/svg">
<path d="M1.85299 16.2644C2.25916 16.1833 2.65425 16.4468 2.73543 16.8529C2.97858 18.0697 3.93019 19.0213 5.14693 19.2644C5.55311 19.3456 5.8166 19.7407 5.73543 20.1469C5.65426 20.5531 5.25917 20.8166 4.85299 20.7354C3.04227 20.3735 1.62633 18.9576 1.26448 17.1469C1.18333 16.7407 1.44683 16.3456 1.85299 16.2644Z" fill="#1D2539"/>
<path d="M21.2645 16.8529C21.3457 16.4468 21.7408 16.1833 22.1469 16.2644C22.5531 16.3456 22.8166 16.7407 22.7354 17.1469C22.3736 18.9576 20.9577 20.3735 19.1469 20.7354C18.7408 20.8165 18.3457 20.5531 18.2645 20.1469C18.1833 19.7407 18.4468 19.3456 18.853 19.2644C20.0697 19.0213 21.0213 18.0697 21.2645 16.8529Z" fill="#1D2539"/>
<path fill-rule="evenodd" clip-rule="evenodd" d="M6.99532 5.95743C10.3143 5.48366 13.6857 5.48365 17.0047 5.95743H17.005C18.5538 6.17893 19.7997 7.33766 20.1363 8.861C20.1713 9.0266 20.2033 9.19285 20.2367 9.3588L20.2368 9.3599C20.253 9.44124 20.2637 9.52225 20.2699 9.60257C20.5508 11.4145 20.5117 13.2644 20.1517 15.0656V15.0661C19.8392 16.6252 18.5783 17.8174 17.005 18.0424H17.0047C13.6857 18.5162 10.3143 18.5162 6.99532 18.0424H6.99508C5.42169 17.8174 4.16082 16.6252 3.84835 15.0661V15.0656C3.48839 13.2646 3.44906 11.4148 3.72994 9.60306C3.74705 9.37762 3.80415 9.15523 3.84835 8.93412V8.93375C4.16082 7.37464 5.4217 6.18243 6.99508 5.95743H6.99532ZM16.7928 7.44364C13.6131 6.98992 10.3857 6.99005 7.20723 7.44376L7.20711 7.44364C6.26315 7.57875 5.5067 8.29413 5.31917 9.22989L5.30733 9.28837C5.27723 9.44243 5.24961 9.59685 5.22469 9.75162C5.22488 10.021 5.44318 10.25 5.72506 10.25H18.275C18.5562 10.25 18.7743 10.0208 18.7752 9.7526C18.7471 9.57781 18.7152 9.40369 18.6809 9.23002C18.4933 8.29423 17.7368 7.57873 16.7928 7.44364Z" fill="#1D2539"/>
<path d="M4.85299 3.26444C5.25916 3.18327 5.65425 3.44677 5.73543 3.85294C5.8166 4.25912 5.55311 4.65422 5.14693 4.73539C3.93019 4.97855 2.97858 5.93014 2.73543 7.14689C2.65426 7.55307 2.25917 7.81656 1.85299 7.73539C1.44683 7.6542 1.18332 7.25911 1.26448 6.85294C1.62633 5.04222 3.04227 3.6263 4.85299 3.26444Z" fill="#1D2539"/>
<path d="M18.2645 3.85294C18.3457 3.44677 18.7408 3.1833 19.1469 3.26444C20.9577 3.62629 22.3736 5.04221 22.7354 6.85294C22.8166 7.25912 22.5531 7.65422 22.1469 7.73539C21.7408 7.81653 21.3457 7.55306 21.2645 7.14689C21.0213 5.93014 20.0697 4.97854 18.853 4.73539C18.4468 4.6542 18.1833 4.25911 18.2645 3.85294Z" fill="#1D2539"/>
</svg>
